/* XPM */
static char *result[] = {
/* columns rows colors chars-per-pixel */
"50 50 134 2 ",
"   c #0E0F0F",
".  c #0F0F10",
"X  c #0F1010",
"o  c #121313",
"O  c #171718",
"+  c #171918",
"@  c #1A1B1C",
"#  c #1F1F20",
"$  c #222224",
"%  c #272729",
"&  c #2B2B2C",
"*  c #2D302F",
"=  c #2F2F31",
"-  c #302F31",
";  c #333335",
":  c #373638",
">  c #39373A",
",  c #3C3B3D",
"<  c #4B453E",
"1  c #564A3C",
"2  c #785A36",
"3  c #3F3E40",
"4  c #403F41",
"5  c #424142",
"6  c #434947",
"7  c #484648",
"8  c #4D4B4C",
"9  c #534F4C",
"0  c #4C534F",
"q  c #4F4F50",
"w  c #524F51",
"e  c #4D5552",
"r  c #555354",
"t  c #585557",
"y  c #515955",
"u  c #5A5759",
"i  c #5D5A5C",
"p  c #605E5F",
"a  c #59625D",
"s  c #625F61",
"d  c #5D6661",
"f  c #656264",
"g  c #6A6669",
"h  c #666F6C",
"j  c #6D6A6B",
"k  c #716D6F",
"l  c #726F72",
"z  c #6E7975",
"x  c #747173",
"c  c #787577",
"v  c #717C75",
"b  c #7E7B7D",
"n  c #B0742D",
"m  c #AD783C",
"M  c #76817B",
"N  c #B18839",
"B  c #DD8D25",
"V  c #CAA635",
"C  c #D0AA3D",
"Z  c #E0A924",
"A  c #EAA522",
"S  c #F5A620",
"D  c #F6AF20",
"F  c #EBB02F",
"G  c #F7BF2D",
"H  c #F0A738",
"J  c #EABF3A",
"K  c #B78442",
"L  c #A3886A",
"P  c #B38F64",
"I  c #B8A47A",
"U  c #E29E46",
"Y  c #CDA249",
"T  c #EDA344",
"R  c #EEB143",
"E  c #E9AE5B",
"W  c #CD9E67",
"Q  c #E7B367",
"!  c #E7B867",
"~  c #E3BE7E",
"^  c #E5B972",
"/  c #F8D147",
"(  c #ECC856",
")  c #F7CE54",
"_  c #F0CC5D",
"`  c #E4C266",
"'  c #ECD170",
"]  c #F7DC7B",
"[  c #F8E17B",
"{  c #817E80",
"}  c #858284",
"|  c #8A8789",
" . c #8C888A",
".. c #908D8F",
"X. c #89978F",
"o. c #899691",
"O. c #8B9991",
"+. c #969294",
"@. c #989597",
"#. c #9B9799",
"$. c #919F9A",
"%. c #A09C9E",
"&. c #96A69C",
"*. c #99A79E",
"=. c #B3B99D",
"-. c #9AA9A3",
";. c #A2B3A8",
":. c #ACBDB5",
">. c #AFC1B8",
",. c #B7C9BF",
"<. c #B3C5BC",
"1. c #DFC995",
"2. c #E1C38A",
"3. c #E2D189",
"4. c #F8E788",
"5. c #DDCEA1",
"6. c #D0D3AE",
"7. c #DBD4AD",
"8. c #D9D9B8",
"9. c #F8EDB0",
"0. c #F8F1B0",
"q. c #F8F3BD",
"w. c #BACEC3",
"e. c #BED1C6",
"r. c #C1D5CA",
"t. c #C6DBCE",
"y. c #D7DEC4",
"u. c #C8DDD1",
"i. c #D5E4CF",
"p. c #CCE1D4",
"a. c #CFE5D8",
"s. c #D3E9DB",
"d. c #F7FAF2",
"f. c #F7F8E5",
/* pixels */
"s.s.s.s.s.s.s.s.s.s.s.s.s.s.s.s.s.s.s.s.s.s.s.s.s.s.s.s.s.s.s.s.s.s.s.s.s.s.s.s.s.s.s.s.s.s.s.s.s.s.",
"s.s.s.s.s.s.s.s.s.s.s.s.s.s.s.s.s.s.s.s.s.s.s.s.s.s.s.s.s.s.s.s.s.s.s.s.s.s.s.s.s.s.s.s.s.s.s.s.s.s.",
"s.s.s.s.s.s.s.s.s.s.s.s.s.s.s.s.s.s.s.s.s.s.s.s.s.s.s.s.s.s.s.s.s.s.s.s.s.s.s.s.s.s.s.s.s.s.s.s.s.s.",
"s.s.s.s.s.s.s.s.s.s.s.s.s.s.s.s.s.s.s.s.s.s.s.s.s.s.s.s.s.s.s.s.s.s.s.s.s.s.s.s.s.s.s.s.s.s.s.s.s.s.",
"s.s.s.s.s.s.s.s.s.s.s.s.s.s.s.s.s.s.s.s.s.s.s.s.s.s.s.s.s.s.s.s.s.s.s.s.s.s.s.s.s.s.s.s.s.s.s.s.s.s.",
"s.s.s.s.s.s.s.s.s.s.s.s.s.s.s.s.s.s.s.s.s.s.s.s.s.s.s.s.s.s.s.s.s.s.s.s.s.s.s.s.s.s.s.s.s.s.s.s.s.s.",
"s.s.s.s.s.s.s.s.s.s.s.s.s.s.s.s.s.s.s.s.s.s.s.s.s.s.s.s.s.s.s.s.s.s.s.s.s.s.s.s.s.s.s.s.s.s.s.s.s.s.",
"s.s.s.s.s.s.s.s.s.s.s.s.s.8.7.s.s.s.s.s.s.s.s.s.s.s.s.s.s.s.s.s.s.s.s.s.s.s.s.s.s.s.s.s.s.s.s.s.s.s.",
"s.s.s.s.s.s.s.s.s.s.5.1.s.! ~ 1.T y.s.s.s.s.s.s.s.s.s.s.s.s.s.s.s.s.s.s.s.s.s.s.s.s.s.s.s.s.s.s.s.s.",
"s.s.s.s.s.s.s.s.s.s.y.H =.J C G 1.s.y.s.s.s.s.s.s.s.s.s.s.s.s.s.s.s.s.s.s.s.s.s.s.s.s.s.s.s.s.s.s.s.",
"s.s.s.s.s.s.s.s.s.s.s.6./ [ q.( _ S Q s.s.s.s.s.s.s.s.s.s.s.s.s.s.s.s.s.s.s.s.s.s.s.s.s.s.s.s.s.s.s.",
"s.s.s.s.s.s.s.s.s.s.^ D ] f.d.4.3.s.s.s.s.s.s.s.s.s.s.s.s.s.s.s.s.s.s.s.s.s.s.s.s.s.s.s.s.s.s.s.s.s.",
"s.s.s.s.s.s.s.s.s.y.E Y Z 0.9.' ) R y.s.s.s.s.s.s.s.s.s.s.s.s.s.s.s.s.s.s.s.s.s.s.s.s.s.s.s.s.s.s.s.",
"s.s.s.s.s.s.s.s.s.y.i.U F ` N V 2.H 1.s.s.t.X.a 6 X X o 6 a O.t.s.s.s.s.s.s.s.s.s.s.s.s.s.s.s.s.s.s.",
"s.s.s.s.s.s.s.s.s.s.i.K A W P B 2.1.7.w.a   . X   # & & & o O o d w.s.s.s.s.s.s.s.s.s.s.s.s.s.s.s.s.",
"s.s.s.s.s.s.s.s.s.s.i.I 2 m < n 1.s.v       O ; 8 i f x b } f , + O M s.s.s.s.s.s.s.s.s.s.s.s.s.s.s.",
"s.s.s.s.s.s.s.s.s.s.s.*.2 L i < -.0     . O > 4 7 9 i s l {  .@.b = + y t.s.s.s.s.s.s.s.s.s.s.s.s.s.",
"s.s.s.s.s.s.s.s.s.s.s.,.1 9 j 5 , %     o & ; , 4 8 r p g x { | +.#.q @ , s.s.s.s.s.s.s.s.s.s.s.s.s.",
"s.s.s.s.s.s.s.s.s.s.s.s.y < 9 3 5 , $   # % * ; 3 5 8 t s k l { | +.#.q + d s.s.s.s.s.s.s.s.s.s.s.s.",
"s.s.s.s.s.s.s.s.s.s.s.s.-., 6 h 3 5 ; O # % & * > 3 7 w u s k c b | ..#.; + -.a.s.s.s.s.s.s.s.s.s.s.",
"s.s.s.s.s.s.s.s.s.s.s.s.s.y 3 < 5 3 * @ # $ % & - , 4 8 t s j l c b } | b @ = s.s.s.s.s.s.s.s.s.s.s.",
"s.s.s.s.s.s.s.s.s.s.s.s.s.M 3 3 5 ; % + @ # $ & - , 4 8 r s g l l x c b } 5 O O.s.s.s.s.s.s.s.s.s.s.",
"s.s.s.s.s.s.s.s.s.s.s.s.s.0 # * $ $ # X @ @ $ % - - , 4 8 p k k j j j l c i O e s.s.s.s.s.s.s.s.s.s.",
"s.s.s.s.s.s.s.s.s.s.s.s.s.    X + o X X + @ # $ & - , 4 7 r p s f s s f g g O o s.s.s.s.s.s.s.s.s.s.",
"s.s.s.s.s.s.s.s.s.s.s.s.;.X     . . . . X @ # # % & - 3 4 8 w t t t t t i s O o ;.s.s.s.s.s.s.s.s.s.",
"s.s.s.s.s.s.s.s.s.s.s.s.X.      . . . . X O @ # $ % - - > 4 7 7 8 8 8 q w t o o &.s.s.s.s.s.s.s.s.s.",
"s.s.s.s.s.s.s.s.s.s.s.s.z           X . X X # @ # $ % = ; > > 3 3 4 5 5 7 7 o o M a.s.s.s.s.s.s.s.s.",
"s.s.s.s.s.s.s.s.s.s.s.s.z           X X X X X @ # # $ % = - - ; ; : , , 3 & o . M s.s.s.s.s.s.s.s.s.",
"s.s.s.s.s.s.s.s.s.s.s.s.X.              . X X O @ # # $ $ % & = = = - ; ; + X X &.s.s.s.s.s.s.s.s.s.",
"s.s.s.s.s.s.s.s.s.s.s.s.;.              . . X X X O # # # $ $ $ % & & % + o X X ;.a.s.s.s.s.s.s.s.s.",
"s.s.s.s.s.s.s.s.s.s.s.s.a.X X X         . . . X X X O O @ # # # $ # @ o X X X X s.s.s.s.s.s.s.s.s.s.",
"s.s.s.s.s.s.s.s.s.s.s.s.s.0 = X         . . . X X X . . o o O O o o o o X X   e s.s.s.s.s.s.s.s.s.s.",
"s.s.s.s.s.s.s.s.s.s.s.s.s.X.+ 6 o X .           . . X X o X X o X X o . . .   X.s.s.s.s.s.s.s.s.s.s.",
"s.s.s.s.s.s.s.s.s.s.s.s.s.u.$ ; , o                 . X X X X X . . . .     # u.s.s.s.s.s.s.s.s.s.s.",
"s.s.s.s.s.s.s.s.s.s.s.s.a.-.z o 5 3 +               .     . . . .       . . M -.a.s.s.s.s.s.s.s.s.s.",
"s.s.s.s.s.s.s.s.s.s.s.s.e.-.-.6 + 3 , % X X                             X e -.-.e.s.s.s.s.s.s.s.s.s.",
"s.s.s.s.s.s.s.s.s.s.s.s.w.-.-.-.; + > : = @ X X     .                   , -.-.-.w.s.s.s.s.s.s.s.s.s.",
"s.s.s.s.s.s.s.s.s.s.s.s.p.-.-.-.$.6 o & = & % # O o X .   .           6 -.-.-.-.p.s.s.s.s.s.s.s.s.s.",
"s.s.s.s.s.s.s.s.s.s.s.s.s.<.-.-.-.-.d + @ $ % # @ @ O o o o X     + d -.-.-.-.w.s.s.s.s.s.s.s.s.s.s.",
"s.s.s.s.s.s.s.s.s.s.s.s.s.s.w.-.-.-.-.o.6 X o + @ + O o o X     6 o.-.-.-.-.w.a.s.s.s.s.s.s.s.s.s.s.",
"s.s.s.s.s.s.s.s.s.s.s.s.s.s.s.u.>.-.-.-.-.$.h 6 ; +   + - 6 h $.-.-.-.-.>.p.s.s.s.s.s.s.s.s.s.s.s.s.",
"s.s.s.s.s.s.s.s.s.s.s.s.s.s.s.s.s.a.e.:.-.-.-.-.-.-.-.-.-.-.-.-.-.:.e.a.s.s.s.s.s.s.s.s.s.s.s.s.s.s.",
"s.s.s.s.s.s.s.s.s.s.s.s.s.s.s.s.s.s.s.s.s.a.t.e.,.,.,.,.,.r.t.s.s.s.s.s.s.s.s.s.s.s.s.s.s.s.s.s.s.s.",
"s.s.s.s.s.s.s.s.s.s.s.s.s.s.s.s.s.s.s.s.s.s.s.s.s.s.s.s.s.s.s.s.s.s.s.s.s.s.s.s.s.s.s.s.s.s.s.s.s.s.",
"s.s.s.s.s.s.s.s.s.s.s.s.s.s.s.s.s.s.s.s.s.s.s.s.s.s.s.s.s.s.s.s.s.s.s.s.s.s.s.s.s.s.s.s.s.s.s.s.s.s.",
"s.s.s.s.s.s.s.s.s.s.s.s.s.s.s.s.s.s.s.s.s.s.s.s.s.s.s.s.s.s.s.s.s.s.s.s.s.s.s.s.s.s.s.s.s.s.s.s.s.s.",
"s.s.s.s.s.s.s.s.s.s.s.s.s.s.s.s.s.s.s.s.s.s.s.s.s.s.s.s.s.s.s.s.s.s.s.s.s.s.s.s.s.s.s.s.s.s.s.s.s.s.",
"s.s.s.s.s.s.s.s.s.s.s.s.s.s.s.s.s.s.s.s.s.s.s.s.s.s.s.s.s.s.s.s.s.s.s.s.s.s.s.s.s.s.s.s.s.s.s.s.s.s.",
"s.s.s.s.s.s.s.s.s.s.s.s.s.s.s.s.s.s.s.s.s.s.s.s.s.s.s.s.s.s.s.s.s.s.s.s.s.s.s.s.s.s.s.s.s.s.s.s.s.s.",
"s.s.s.s.s.s.s.s.s.s.s.s.s.s.s.s.s.s.s.s.s.s.s.s.s.s.s.s.s.s.s.s.s.s.s.s.s.s.s.s.s.s.s.s.s.s.s.s.s.s."
};
