/* XPM */
static char *result[] = {
/* columns rows colors chars-per-pixel */
"50 50 196 2 ",
"   c #4B130E",
".  c #5A150F",
"X  c #5A1510",
"o  c #561410",
"O  c #631611",
"+  c #641914",
"@  c #6C1914",
"#  c #691713",
"$  c #741A15",
"%  c #7B1B16",
"&  c #761D19",
"*  c #7D1B19",
"=  c #51201A",
"-  c #65251F",
";  c #7E201A",
":  c #422B22",
">  c #513A32",
",  c #512F2B",
"<  c #662521",
"1  c #623A23",
"2  c #72332E",
"3  c #78342C",
"4  c #643E3A",
"5  c #773A35",
"6  c #564039",
"7  c #5D4742",
"8  c #6B524C",
"9  c #6B5854",
"0  c #775D59",
"q  c #6D5147",
"w  c #76615B",
"e  c #796865",
"r  c #7C7070",
"t  c #861C18",
"y  c #8B1D1A",
"u  c #851C17",
"i  c #961E1B",
"p  c #9B1F1E",
"a  c #84221C",
"s  c #8D211C",
"d  c #94221E",
"f  c #9B241F",
"g  c #A3241E",
"h  c #AF231E",
"j  c #9E1E20",
"k  c #852D26",
"l  c #9D2925",
"z  c #813632",
"x  c #A32620",
"c  c #AB2421",
"v  c #A62821",
"b  c #AA2821",
"n  c #A02F29",
"m  c #B32523",
"M  c #BB2226",
"N  c #B42923",
"B  c #BC2924",
"V  c #A4302A",
"C  c #C32B24",
"Z  c #CE2D26",
"A  c #C82727",
"S  c #D42F27",
"D  c #DA2C27",
"F  c #D02828",
"G  c #DA3028",
"H  c #E52F2A",
"J  c #84423A",
"K  c #924742",
"L  c #934943",
"P  c #984843",
"I  c #86514C",
"U  c #9A5145",
"Y  c #935451",
"T  c #9B5E5B",
"R  c #935E59",
"E  c #8B4640",
"W  c #AC4E4A",
"Q  c #B24F49",
"!  c #A2534A",
"~  c #BC504B",
"^  c #A85754",
"/  c #B05855",
"(  c #89605D",
")  c #92605D",
"_  c #9C625F",
"`  c #A7635F",
"'  c #B66D5F",
"]  c #826864",
"[  c #9E6C68",
"{  c #87756C",
"}  c #8B7A74",
"|  c #8A7A76",
" . c #947D79",
".. c #A66460",
"X. c #A4726E",
"o. c #AC706E",
"O. c #A37E77",
"+. c #B5716D",
"@. c #C0514B",
"#. c #C16F61",
"$. c #C37062",
"%. c #C07C71",
"&. c #8E807E",
"*. c #92827F",
"=. c #AC8179",
"-. c #BB8379",
";. c #B58377",
":. c #CA8978",
">. c #C28778",
",. c #968784",
"<. c #968983",
"1. c #9A8D8A",
"2. c #988A85",
"3. c #99918D",
"4. c #9F9792",
"5. c #9C9896",
"6. c #AE8584",
"7. c #B78C8A",
"8. c #B98986",
"9. c #AC918E",
"0. c #A39694",
"q. c #A39D9B",
"w. c #A79B97",
"e. c #B79491",
"r. c #BB9492",
"t. c #ACA19E",
"y. c #AEB09F",
"u. c #ADA5A4",
"i. c #AEA9A6",
"p. c #A4ABAB",
"a. c #A8A9AA",
"s. c #BAADAB",
"d. c #B1AAA7",
"f. c #A6B1AD",
"g. c #ADB0A4",
"h. c #B6B1AF",
"j. c #B8B5AD",
"k. c #AAAFB1",
"l. c #A9B3B0",
"z. c #ACBAB3",
"x. c #B3B6B6",
"c. c #BDBCBC",
"v. c #B4BBB8",
"b. c #C58E8D",
"n. c #DF9192",
"m. c #E59493",
"M. c #C6A19E",
"N. c #C4ACAA",
"B. c #D4ACAA",
"V. c #C4BAB7",
"C. c #C4BEBC",
"Z. c #D7BEBB",
"A. c #B4C4BB",
"S. c #B9C3BD",
"D. c #C7C0BE",
"F. c #BBB9C0",
"G. c #BEC4C3",
"H. c #BDCBC2",
"J. c #BFD1C6",
"K. c #B7D7EE",
"L. c #C4C3C2",
"P. c #CAC5C4",
"I. c #C2CCC6",
"U. c #C6CACC",
"Y. c #CECECE",
"T. c #C5C7C8",
"R. c #D2C5C3",
"E. c #D4CECB",
"W. c #DFC6C5",
"Q. c #C5D7CC",
"!. c #CED1D2",
"~. c #CADED2",
"^. c #D4D4D4",
"/. c #D6D9DA",
"(. c #DDDEDE",
"). c #D9D7D6",
"_. c #D2D0CF",
"`. c #E6C7C7",
"'. c #EDC8C8",
"]. c #E1D4D2",
"[. c #E2DDDB",
"{. c #F3C9C9",
"}. c #CDE2D5",
"|. c #D0E4D7",
" X c #DCE2DE",
".X c #D3E9DB",
"XX c #DCEBF7",
"oX c #E4E4E4",
"OX c #EAE6E5",
"+X c #E7E8E8",
"@X c #EDEBEB",
"#X c #F1EFEF",
"$X c #EFF1F2",
"%X c #ECF5FD",
"&X c #F4F1F1",
"*X c #FFFFFF",
/* pixels */
".X.X.X.X.X.X.X.X.X.X.X.X.X.X.X.X.X.X.X.X.X.X.X.X.X.X.X.X.X.X.X.X.X.X.X.X.X.X.X.X.X.X.X.X.X.X.X.X.X.X",
".X.X.X.X.X.X.X.X.X.X.X.X.X.X.X.X.X.X.X.X.X.X.X.X.X.X.X.X.X.X.X.X.X.X.X.X.X.X.X.X.X.X.X.X.X.X.X.X.X.X",
".X.X.X.X.X.X.X.X.X.X.X.X.X.X.X.X.X.X.X.X.X.X.XJ.f.p.J..X.X.X.X.X.X.X.X.X.X.X.X.X.X.X.X.X.X.X.X.X.X.X",
".X.X.X.X.X.X.X.X.X.X.X.X.X.X.X.X.X.X.X.X|.A.p.G.T.v.G.p.z.}..X.X.X.X.X.X.X.X.X.X.X.X.X.X.X.X.X.X.X.X",
".X.X.X.X.X.X.X.X.X.X.X.X.X.X.X.X.X.X~.f.p.!.C.<.{ { <.D.!.f.f.Q..X.X.X.X.X.X.X.X.X.X.X.X.X.X.X.X.X.X",
".X.X.X.X.X.X.X.X.X.X.X.X.X.X.X.XA.l.v./.j.| ,.u.w w 0.2.2.x./.x.l.A..X.X.X.X.X.X.X.X.X.X.X.X.X.X.X.X",
".X.X.X.X.X.X.X.X.X.X.X.X.X~.z.l.U.!.t.| t.1.E % d s % 3  .u.<.u.^.U.p.z.~..X.X.X.X.X.X.X.X.X.X.X.X.X",
".X.X.X.X.X.X.X.X.X.X.XH.l.k./.P.<.3.t.] = J U U U U U U J   w q.4.4.^./.l.p.H..X.X.X.X.X.X.X.X.X.X.X",
".X.X.X.X.X.X.X.X}.A.p.T.(.h.<.i.<.5 % g h $.-.O.>.-.=.-.#.g g y z 2.d.0.C.(.G.p.v.|..X.X.X.X.X.X.X.X",
".X.X.X.X.X.X.X.Xf.x.^.t.0.1.( - O % $ % % ' O.O.;.-.O.=.' % % % % # - 0 &.q.C./.p.p..X.X.X.X.X.X.X.X",
".X.X.X.X.X.X.X}.k.V.x.,.3 y h c h h h h h #.:.:.:.:.:.:.$.h h h h h h h * 2 *.x.!.f.~..X.X.X.X.X.X.X",
".X.X.X.X.X.X.Xz./.5.0 $ % $ $ $ $ $ $ % $ ' O. .N.N.=.-.' $ $ $ $ $ $ $ $ $ @ 4 a.(.z..X.X.X.X.X.X.X",
".X.X.X.X.X.X.Xp.!.d.X t t t y t u u u u u %.c.K.XX%XoXZ.%.u u u u u t y t y t o u.(.k.|..X.X.X.X.X.X",
".X.X.X.X.X.XH.!.q. .t s s s y y s d y f h '.*X*X*X*X*X*X{.h f i y j y k s y s t { x.!.G..X.X.X.X.X.X",
".X.X.X.X.X.Xf./.5., + X O O O O O $ u u u % $ $ $ $ $ $ $ u u u @ O O X O O O O , a.+Xp..X.X.X.X.X.X",
".X.X.X.X.X~.G.c.3.* i j d y l h B M M M M M M M M M B M M M M M h m x j a y s t % 2.U.G.~..X.X.X.X.X",
".X.X.X.X.Xl.+X5.9 o o o O @ % % % % % % $ & $ $ * $ # * * & * * * * * $ & # o o o 7 k.@Xl..X.X.X.X.X",
".X.X.X.X.Xx.P.q.+ a j M M M m m m m h M M M M M M M M M M M M M m M M M M M c j y + u.(.l..X.X.X.X.X",
".X.X.X.XG.+Xq.e     + $ $ @ $ $ $ # $ $ * y y j t y y y y t t y y y y y t y y & # X ] a.+XA..X.X.X.X",
".X.X.X.Xv./.i.< y j M M M M M M M M M M M M M M M M M M M M M M M M M M M M M M j y < u.+Xx..X.X.X.X",
".X.X.XQ.!.u.&.+ 2 X.7.7.7.7.7.7.y y y y y o.8.8.8.b.7.8.o.y y y y y 7.8.7.7.7.8.[ 2 + &.F.!.Q..X.X.X",
".X.X.XA.$Xq.4 $ ! V.| P.[.2.C.*Xj j j j j `.w.,.).F.0.).W.j j j j j *X| <.#XD.u.Z.Y & 4 a.&Xv..X.X.X",
".X.X|.^.F.w.# t -.w.9 | [.,.8 *Xc c c c M `.{ 9 t.C. .| '.j M j c m *X7 0 E.P.{ | +.t X q.T.Y.|..X.X",
".X.XH.@X3.0 & & b.OXE.[.&XE.^.*Xj j j j j W./.E.OX#XY.oX'.j j j p p *XE.E.&XOXE.oXb.& $ 0 a.@XG..X.X",
".X.XP.^.i.O d f n.s.r <.(.w.2.*XM C M M M '.2.r N.F.a.w.{.M A M M C *Xe r ^.P.t.t.m.j i # d.(.T..X.X",
".XQ. Xq.| O $ y b.q.: w ).> 9 *Xi i f i i `.e : 0.s.,  .W.* * * % * *X, : Y.u.> 1.7.# X o | i. XQ..X",
".XG.oXq.z x x F m.*X*X*X*X*X*X*XF F F F F {.*X*X*X*X*X*X'.A F F F F *X*X*X*X*X*X*Xm.C p f 2 i.+XI..X",
"|./.u.u.O @ * i d d s s d y s d k j y l d s y y y y y y y j s j d d y y y t y t y s d % @ . t.j.Y.|.",
"S.@X0 0.$ y h M N M N M M N N N M m m m m M N N N m N N N B m N N M N B m N m m m N M c y $ 9.w @XS.",
"Y.D.1 0.$ i m h c m m b b c m m h m m m c c m c m m m m m c c m b m m b m m m m m b b m y $ 0.1 D.U.",
"S.y.j.0.% h B B B B W 6.6.6.6.6.6.6.6.6.6.6.6.6.6.6.6.6.6.6.6.6.6.6.6.6.6.6.6.W B C B B h % 0.y.A.D.",
".X.X.X0.p H H H H H / +X$X&X$X$X$X$X$X&X$X$X$X$XU.U.$X$X$X$X$X&X$X$X$X$X$X$X+X^ D D D D D d 0..X.X.X",
".X.X.X0.s N h N h N Y *XOXs.s.s.s.s.s.d.s.s.s.*X!.!.*XP.R.R.R.R.D.D.R.R.D.&X&XY m m N m N u 0..X.X.X",
".X.X.X0.N G G G G G ^ *X&X..Z Z Z Z Z Z Z C B.*X!.!.*Xr.C Z Z Z S S Z S ` *X*X^ G D G G G h 0..X.X.X",
".X.X.X0.d b b g g h Y *X@X&X~ S S S S G Z B.[.*X!.!.*XOXr.Z S G S S S ' &X@X*XY h v h v h s 0..X.X.X",
".X.X.X0.b Z Z Z Z Z ^ *Xs._ @X@.Z Z Z C M.].k *X!.!.*Xk ].r.C Z S F ..#XT d.*X^ Z Z Z Z Z g 0..X.X.X",
".X.X.X0.s g f v f g Y *Xs.C _ OX~ C C r.].V g *X!./.*Xv n ].r.C A Q &X_ B s.*XI s s s s s ; 4..X.X.X",
".X.X.X0.d g g v g g T *Xs.C B _ @XQ r.].V C v *X^. X*Xg B l ].e.Q @X_ B C s.*XR v g v g g a 4..X.X.X",
".X.X.X0.a d d f f d _ *Xs.B B N R *X[.n B B f *X/.(.*Xg B B n (.*XL N B B s.*X_ d d f d d ; 0..X.X.X",
".X.X.X0.; ; a a a a ) *Xs.N N h e.*X#XQ N B f *X[.(.*Xl N B W &X*X+.B N N s.*X) a a a a a @ 0..X.X.X",
".X.X.X0.s h v v h g ` *Xs.m v e.&XL 9.&XQ N f *X(.(.*Xf N Q &XX.J #X8.v m s.*X` v v b b v a 0..X.X.X",
".X.X.X0.a f d d d f _ *Xh.g e.&XP v f 9.#XW d *X(. X*Xd ! &XX.f N P #Xe.x s.*X) s d s s s ; 0..X.X.X",
".X.X.X0.s v v v v v ` *Xs.M.&XL g v v d 9.&XL *X(.oX*X( *X=.f v v v K #Xe.j.*X..v b v v v s 0..X.X.X",
".X.X.Xq.; a a a a a ) *X*X&XL f g l x g s 9.*X*X(.(.*X*X9.s g v x x l E &X*X*X) a a a a a @ 0..X.X.X",
".X.X.X0.a l f f f f _ *X&XJ x l l f f f f s 9.*X(.oX*X9.s f f f f l f d I &X*X_ f f f f f ; 4..X.X.X",
".X.X.X0.& ; ; ; ; ; X.*X@XR.R.R.R.R.R.R.R.R.P.*X(.(.*XP.R.R.R.R.R.R.R.R.R.&X*X) ; ; a ; ; @ w..X.X.X",
".X.X.X0.& ; a a a a [ !._.Y._.Y.Y._.Y.Y._._.Y.Y.c.G.E.!.Y.Y.Y.Y.Y.Y._._.Y.Y.Y.) a a a a ; ; 0..X.X.X",
".X.X.XI. X X X X X X X X X X X X X X X X X X X X(. X X X X X X X X X X X X X X X X X X X.X.XD..X.X.X",
".X.X.X.X.X.X.X.X.X.X.X.X.X.X.X.X.X.X.X.X.X.X.X.X.X.X.X.X.X.X.X.X.X.X.X.X.X.X.X.X.X.X.X.X.X.X.X.X.X.X",
".X.X.X.X.X.X.X.X.X.X.X.X.X.X.X.X.X.X.X.X.X.X.X.X.X.X.X.X.X.X.X.X.X.X.X.X.X.X.X.X.X.X.X.X.X.X.X.X.X.X"
};
