/* XPM */
static char *result[] = {
/* columns rows colors chars-per-pixel */
"50 50 210 2 ",
"   c #783A6C",
".  c #792860",
"X  c #7B4371",
"o  c #8D2057",
"O  c #842159",
"+  c #862A5F",
"@  c #8F2A5D",
"#  c #942156",
"$  c #9B2254",
"%  c #9B2458",
"&  c #952D5E",
"*  c #9B2D5C",
"=  c #9B315F",
"-  c #AC235B",
";  c #A32856",
":  c #BC255C",
">  c #B4235C",
",  c #A5335C",
"<  c #A93859",
"1  c #852F62",
"2  c #843466",
"3  c #8D3567",
"4  c #953463",
"5  c #9B3462",
"6  c #983A68",
"7  c #A43C64",
"8  c #A83861",
"9  c #B53866",
"0  c #CD245C",
"q  c #C3295F",
"w  c #C5255C",
"e  c #D4285C",
"r  c #CC3364",
"t  c #C13C66",
"y  c #C43565",
"u  c #D13766",
"i  c #AD4B5C",
"p  c #AA4459",
"a  c #B0445F",
"s  c #AB535E",
"d  c #8B446F",
"f  c #874770",
"g  c #854973",
"h  c #8D4E78",
"j  c #884D76",
"k  c #964B75",
"l  c #8D547B",
"z  c #865279",
"x  c #9C547A",
"c  c #96587D",
"v  c #A3436B",
"b  c #AD4668",
"n  c #AC486A",
"m  c #AD4262",
"M  c #B24C63",
"N  c #B04766",
"B  c #B4536E",
"V  c #B5596C",
"C  c #B55267",
"Z  c #A44D73",
"A  c #AA4C70",
"S  c #A45076",
"D  c #AC5576",
"F  c #A55379",
"G  c #AB5A7B",
"H  c #B35572",
"J  c #B45874",
"K  c #BD5E78",
"L  c #A95863",
"P  c #B8756D",
"I  c #B7657E",
"U  c #AF7E7D",
"Y  c #BA727B",
"T  c #BE7C73",
"R  c #C7476E",
"E  c #CE4571",
"W  c #D75A75",
"Q  c #D6557A",
"!  c #D14D6F",
"~  c #CC677E",
"^  c #C3657A",
"/  c #DB657A",
"(  c #DE717F",
")  c #E46E7C",
"_  c #AF827D",
"`  c #D3AD6F",
"'  c #D1AE74",
"]  c #E6DA7B",
"[  c #8B5D83",
"{  c #875880",
"}  c #A55E81",
"|  c #8D6588",
" . c #9F6487",
".. c #966789",
"X. c #97688A",
"o. c #987A95",
"O. c #AD6484",
"+. c #A46A8B",
"@. c #A76889",
"#. c #B36481",
"$. c #B87D8C",
"%. c #D75E80",
"&. c #D56082",
"*. c #DA6685",
"=. c #D86986",
"-. c #D67284",
";. c #DA7684",
":. c #DE7984",
">. c #DE728B",
",. c #DD7C8F",
"<. c #E27B85",
"1. c #E17D8F",
"2. c #E17C91",
"3. c #B78386",
"4. c #A18199",
"5. c #B2869A",
"6. c #BAA398",
"7. c #BA9EAA",
"8. c #AEA0AD",
"9. c #BCB6BB",
"0. c #B1A9B3",
"q. c #D39C8F",
"w. c #CB8A8E",
"e. c #E1818B",
"r. c #E98486",
"t. c #EB948C",
"y. c #E48794",
"u. c #E38995",
"i. c #EE9C96",
"p. c #E69298",
"a. c #EA9B9C",
"s. c #E99398",
"d. c #EBA79B",
"f. c #E6BD96",
"g. c #C39CA5",
"h. c #EB9CA2",
"j. c #E796A2",
"k. c #C2A5AC",
"l. c #C8B0AF",
"z. c #C9BAB9",
"x. c #C5B6B6",
"c. c #ECA3A2",
"v. c #EEAAA5",
"b. c #EFA9AB",
"n. c #EDA2A8",
"m. c #F2B3AD",
"M. c #F3BCAF",
"N. c #F1B9A5",
"B. c #F4BCB2",
"V. c #D0C58F",
"C. c #F5CC8D",
"Z. c #F8D786",
"A. c #F5C799",
"S. c #F9D69A",
"D. c #FBE986",
"F. c #FCF28A",
"G. c #ECEE98",
"H. c #FEF59C",
"J. c #CACBBE",
"K. c #F5C4AB",
"L. c #F7CBA9",
"P. c #F6CBA6",
"I. c #FBDCA4",
"U. c #FAD3A3",
"Y. c #F7C8B7",
"T. c #F9CEB9",
"R. c #F4C5B7",
"E. c #FAD4BC",
"W. c #FBDFB7",
"Q. c #DEEBB3",
"!. c #FBE9A6",
"~. c #EFF1A5",
"^. c #FFF5A6",
"/. c #E6E0B2",
"(. c #E7E9B6",
"). c #FDE9B5",
"_. c #EFF2BB",
"`. c #FDF6B4",
"'. c #FCF6B8",
"]. c #E6EBAB",
"[. c #BFC3C3",
"{. c #C7C6C4",
"}. c #CDD4CC",
"|. c #C7D3CD",
" X c #D1D8C4",
".X c #CDDDD4",
"XX c #D1DFD3",
"oX c #F7D7C4",
"OX c #F9D7C5",
"+X c #FADDC6",
"@X c #F9DDC9",
"#X c #F7DBC8",
"$X c #F7CCC0",
"%X c #DCEAC6",
"&X c #D9EACB",
"*X c #D3E9DB",
"=X c #D5E7D2",
"-X c #FBE4CC",
";X c #FDECCD",
":X c #EEF2C5",
">X c #FEF4CE",
",X c #FFFACE",
"<X c #FBF7C5",
"1X c #FDECD1",
"2X c #FBE3D0",
"3X c #FFF4D1",
"4X c #FFF9D2",
"5X c #FFFADA",
"6X c #FFFCE5",
"7X c #FFFDE9",
/* pixels */
"*X*X*X*X*X*X*X*X*X*X*X*X*X*X*X*X*X*X*X*X*X*X*X*X*X*X*X*X*X*X*X*X*X*X*X*X*X*X*X*X*X*X*X*X*X*X*X*X*X*X",
"*X*X*X*X*X*X*X*X*X*X*X*X*X*X*X*X*X*X*X*X*X*X*X*X*X*X*X*X*X*X*X*X*X*X*X*X*X*X*X*X*X*X*X*X*X*X*X*X*X*X",
"*X*X*X*X*X*X*X*X*X*X*X*X*X*X*X*X*X*X*X*X*X*X*X*X*X*X*X*X*X*X*X*X*X*X*X*X*X*X*X*X*X*X*X*X*X*X*X*X*X*X",
"*X*X*X*X*X*X*X*X*X*X*X*X*X*X*X*X*X*X*X*X*X*X*X*X*X*X*X*X*X*X*X*X*X*X*X*X*X*X*X*X*X*X*X*X*X*X*X*X*X*X",
"*X*X*X*X*X*X*X*X*X*X*X*X*X*X*X*X*X*X*X*X*X*X*X*X*X*X*X*X*X*X*X*X*X*X*X*X*X*X*X*X*X*X*X*X*X*X*X*X*X*X",
"*X*X*X*X*X*X*X*X*X*X*X*X*X*X*X*X*X*X*X*X*X*X*X*X*X*X*X*X*X*X*X*X*X*X*X*X*X*X*X*X*X*X*X*X*X*X*X*X*X*X",
"*X*X*X*X*X*X*X*X*X*X*X*X*X*X*X*X*X*X*X*X*X*X*X*X*X*X*X*X*X*X*X*X*X*X*X*X*X*X*X*X*X*X*X*X*X*X*X*X*X*X",
"*X*X*X*X*X*X*X*X*X*X*X*X*X*X*X*X*X*X*X*X*X%X_.`.`.H.] V. X*X*X*X*X*X*X*X*X*X*X*X*X*X*X*X*X*X*X*X*X*X",
"*X*X*X*X*X*X*X*X*X*X*X*X*X*X*X*X*X*X*X=X:X,X,X,X,X,X>X!.` 6.*X*X*X*X*X*X*X*X*X*X*X*X*X*X*X*X*X*X*X*X",
"*X*X*X*X*X*X*X*X*X*X*X*X*X*X*X*X*X*X*X<X5X6X7X4X,X,X,X,X).` _ *X*X*X*X*X*X*X*X*X*X*X*X*X*X*X*X*X*X*X",
"*X*X*X*X*X*X*X*X*X*X*X*X*X*X*X*X*X=X_.5X7X7X6X4X4X4X,X>X>XI.' U *X*X*X*X*X*X*X*X*X*X*X*X*X*X*X*X*X*X",
"*X*X*X*X*X*X*X*X*X*X*X*X*X*X*X*X*X_.4X7X7X7X5X,X,X3X;X;X;X>XS.P _ *X*X*X*X*X*X*X*X*X*X*X*X*X*X*X*X*X",
"*X*X*X*X*X*X*X*X*X*X*X*X*X*X*X*X].4X6X7X7X6X>X3X,X>X;X;X;X1XW.f.p x.*X*X*X*X*X*X*X*X*X*X*X*X*X*X*X*X",
"*X*X*X*X*X*X*X*X*X*X*X*X*X*X*X&X'.5X6X7X7X4X4X,X;X>X;X;X;X1X2XL.P s XX*X*X*X*X*X*X*X*X*X*X*X*X*X*X*X",
"*X*X*X*X*X*X*X*X*X*X*X*X*X*X*X~.,X5X7X7X4X>X>X>X;X;X;X-X;X#XoXN.q.i 3.*X*X*X*X*X*X*X*X*X*X*X*X*X*X*X",
"*X*X*X*X*X*X*X*X*X*X*X*X*X*XQ.^.5X5X6X4X>X>X>X;X;X;X-X-XT.T.m.t.d.M < z.*X*X*X*X*X*X*X*X*X*X*X*X*X*X",
"*X*X*X*X*X*X*X*X*X*X*X*X*X*XG.,X6X5X,X,X,X;X>X;X1X1XOXT.Y.M.p.i.t.V N ^ *X*X*X*X*X*X*X*X*X*X*X*X*X*X",
"*X*X*X*X*X*X*X*X*X*X*X*X*X&XH.,X6X5X>X>X>X;X;X1X;XE.T.Y.M.p.c.i.<.C a < }.*X*X*X*X*X*X*X*X*X*X*X*X*X",
"*X*X*X*X*X*X*X*X*X*X*X*X*XG.<X3X5X5X,X3X3X3X3X1XE.T.B.v.s.h.m.t.` y 9 - w.*X*X*X*X*X*X*X*X*X*X*X*X*X",
"*X*X*X*X*X*X*X*X*X*X*X*X*XF.,X,X,X3X3X3X3X1X1XT.K.v.a.c.v.n.h.) r.M p $ H *X*X*X*X*X*X*X*X*X*X*X*X*X",
"*X*X*X*X*X*X*X*X*X*X*X*X%XF.,X>X>X;X;X;X;X;XM.v.h.a.p.y.2.>.Q 0 / N < $ N z.*X*X*X*X*X*X*X*X*X*X*X*X",
"*X*X*X*X*X*X*X*X*X*X*X*X].^.>X>X;X>X;X;X1XY.v.c.a.p.y.2.<.%.u r ;.8 , $ 7 g.*X*X*X*X*X*X*X*X*X*X*X*X",
"*X*X*X*X*X*X*X*X*X*X*X*XF.'.3X3X>X3X3X1XoXv.d.a.p.y.2.>.*.Q 0 W t N % $ 7 -.*X*X*X*X*X*X*X*X*X*X*X*X",
"*X*X*X*X*X*X*X*X*X*X*X*XD.'.3X3X3X1X-X@Xm.c.a.p.y.1.>.*.%.u Q <.C m % @ 7 O.*X*X*X*X*X*X*X*X*X*X*X*X",
"*X*X*X*X*X*X*X*X*X*X*X=XD.).;X;X1X1X@XR.c.a.p.y.1.>.=.&.E W :.;.^ % $ # 7 #.{.*X*X*X*X*X*X*X*X*X*X*X",
"*X*X*X*X*X*X*X*X*X*X*X%XD.!.;X;X1X-XoXc.a.p.y.2.>.*.&.Q =.:.;.-.b $ # o A } {.*X*X*X*X*X*X*X*X*X*X*X",
"*X*X*X*X*X*X*X*X*X*X*X%XZ.S.;X;X1X@XR.a.u.y.2.>.*.%.>.:.;.-.;.~ % o o o D O.k.*X*X*X*X*X*X*X*X*X*X*X",
"*X*X*X*X*X*X*X*X*X*X*X/.Z.C.-X;X2X-Xv.p.y.1.2.2.y.j.e.;.;.-.-.8 # # o 5 } #.7.*X*X*X*X*X*X*X*X*X*X*X",
"*X*X*X*X*X*X*X*X*X*X*X/.C.C.W.1X2X#XB.B.n.b.n.h.j.e.<.;.-.-.m * o o o Z O.+.7.*X*X*X*X*X*X*X*X*X*X*X",
"*X*X*X*X*X*X*X*X*X*X*X/.C.S.U.+X2X$Xm.j.2.2.u.u.<.;.;.=.~ 9 # n o o 4 G @.+.x.*X*X*X*X*X*X*X*X*X*X*X",
"*X*X*X*X*X*X*X*X*X*X*X XU.P.P.L.OXR.m.b.j.%.r w q t 9 9 - # 7 v o @ F } +.+.9.*X*X*X*X*X*X*X*X*X*X*X",
"*X*X*X*X*X*X*X*X*X*X*XJ.f.A.L.K.M.i.i.s.r.<.r q : > - - # 5 D 4 @ S F +.+.h .X*X*X*X*X*X*X*X*X*X*X*X",
"*X*X*X*X*X*X*X*X*X*X*X.XT P.K.d.s.! e 0 u W ( y > > ; % v H v 4 F F } +.X.j *X*X*X*X*X*X*X*X*X*X*X*X",
"*X*X*X*X*X*X*X*X*X*X*X*XL w.N.u.1.W 0 0 w w 9 Q - $ 5 A D Z v F S x  .l g 4.*X*X*X*X*X*X*X*X*X*X*X*X",
"*X*X*X*X*X*X*X*X*X*X*X*X3.< P e.1.=.u w w > - 8 v H H H D D F x 3 k g g X 9.*X*X*X*X*X*X*X*X*X*X*X*X",
"*X*X*X*X*X*X*X*X*X*X*X*X|.< i M V ^ I ^ B C V H H H D D F F Z O h h g z | *X*X*X*X*X*X*X*X*X*X*X*X*X",
"*X*X*X*X*X*X*X*X*X*X*X*X*XY i M < ; $ ; 8 b H H H H D D S S x x l g { [ 0.*X*X*X*X*X*X*X*X*X*X*X*X*X",
"*X*X*X*X*X*X*X*X*X*X*X*X*X}.V , $ ; $ $ $ # # * 5 6 6 6 6 2 3 f g l | | *X*X*X*X*X*X*X*X*X*X*X*X*X*X",
"*X*X*X*X*X*X*X*X*X*X*X*X*X*Xl.< , $ $ % % * o o o o O O O 2 g j | |   |.*X*X*X*X*X*X*X*X*X*X*X*X*X*X",
"*X*X*X*X*X*X*X*X*X*X*X*X*X*X*Xl.J * % # # * A 5 & O O + d l | X.|   {.*X*X*X*X*X*X*X*X*X*X*X*X*X*X*X",
"*X*X*X*X*X*X*X*X*X*X*X*X*X*X*X*Xz.I J v = * Z D F } @.+.+.X.X.{   {.*X*X*X*X*X*X*X*X*X*X*X*X*X*X*X*X",
"*X*X*X*X*X*X*X*X*X*X*X*X*X*X*X*X*XXXk.#.#.#.} } x x l  .X.| X o..X*X*X*X*X*X*X*X*X*X*X*X*X*X*X*X*X*X",
"*X*X*X*X*X*X*X*X*X*X*X*X*X*X*X*X*X*X*X*Xx.5.} 1 2 1   . X.8.|.*X*X*X*X*X*X*X*X*X*X*X*X*X*X*X*X*X*X*X",
"*X*X*X*X*X*X*X*X*X*X*X*X*X*X*X*X*X*X*X*X*X*X*X*X*X*X*X*X*X*X*X*X*X*X*X*X*X*X*X*X*X*X*X*X*X*X*X*X*X*X",
"*X*X*X*X*X*X*X*X*X*X*X*X*X*X*X*X*X*X*X*X*X*X*X*X*X*X*X*X*X*X*X*X*X*X*X*X*X*X*X*X*X*X*X*X*X*X*X*X*X*X",
"*X*X*X*X*X*X*X*X*X*X*X*X*X*X*X*X*X*X*X*X*X*X*X*X*X*X*X*X*X*X*X*X*X*X*X*X*X*X*X*X*X*X*X*X*X*X*X*X*X*X",
"*X*X*X*X*X*X*X*X*X*X*X*X*X*X*X*X*X*X*X*X*X*X*X*X*X*X*X*X*X*X*X*X*X*X*X*X*X*X*X*X*X*X*X*X*X*X*X*X*X*X",
"*X*X*X*X*X*X*X*X*X*X*X*X*X*X*X*X*X*X*X*X*X*X*X*X*X*X*X*X*X*X*X*X*X*X*X*X*X*X*X*X*X*X*X*X*X*X*X*X*X*X",
"*X*X*X*X*X*X*X*X*X*X*X*X*X*X*X*X*X*X*X*X*X*X*X*X*X*X*X*X*X*X*X*X*X*X*X*X*X*X*X*X*X*X*X*X*X*X*X*X*X*X",
"*X*X*X*X*X*X*X*X*X*X*X*X*X*X*X*X*X*X*X*X*X*X*X*X*X*X*X*X*X*X*X*X*X*X*X*X*X*X*X*X*X*X*X*X*X*X*X*X*X*X"
};
