/* XPM */
static char *result[] = {
/* columns rows colors chars-per-pixel */
"50 50 185 2 ",
"   c #4B130E",
".  c #5E150F",
"X  c #55140E",
"o  c #5A1510",
"O  c #561410",
"+  c #631611",
"@  c #641914",
"#  c #6C1914",
"$  c #691713",
"%  c #741A15",
"&  c #7B1B16",
"*  c #761D19",
"=  c #7D1B19",
"-  c #51201A",
";  c #65251F",
":  c #7E201A",
">  c #422B22",
",  c #562D28",
"<  c #513A32",
"1  c #463431",
"2  c #662521",
"3  c #623A23",
"4  c #72332E",
"5  c #78342C",
"6  c #643E3A",
"7  c #773A35",
"8  c #564039",
"9  c #5D4742",
"0  c #6B524C",
"q  c #6B5854",
"w  c #7C5E5A",
"e  c #725C58",
"r  c #6D5147",
"t  c #75615D",
"y  c #7A6255",
"u  c #796865",
"i  c #7C706F",
"p  c #7B7071",
"a  c #811B17",
"s  c #861C18",
"d  c #8B1D1A",
"f  c #8A1D17",
"g  c #961E1B",
"h  c #9B1F1E",
"j  c #84221C",
"k  c #8D211C",
"l  c #94221E",
"z  c #9B231F",
"x  c #A3241E",
"c  c #AF231E",
"v  c #9E1E20",
"b  c #9E2120",
"n  c #813632",
"m  c #A52520",
"M  c #AB2421",
"N  c #A62821",
"B  c #AE2822",
"V  c #B32523",
"C  c #BB2226",
"Z  c #BD2924",
"A  c #B52922",
"S  c #CE2D26",
"D  c #C82727",
"F  c #DA2C27",
"G  c #D02828",
"H  c #DA3028",
"J  c #E52F2A",
"K  c #84423A",
"L  c #CB682E",
"P  c #9A5145",
"I  c #A15248",
"U  c #83605C",
"Y  c #B66D5F",
"T  c #826864",
"R  c #89766C",
"E  c #82706B",
"W  c #8B7A74",
"Q  c #8E7E7A",
"!  c #877671",
"~  c #947D79",
"^  c #9F6C66",
"/  c #A9716E",
"(  c #A37E77",
")  c #B77974",
"_  c #C16F61",
"`  c #C37062",
"'  c #C07C71",
"]  c #BB8414",
"[  c #C58515",
"{  c #CC8617",
"}  c #D88819",
"|  c #E78B1B",
" . c #D8A739",
".. c #F1E60D",
"X. c #8E807E",
"o. c #92827F",
"O. c #AD8177",
"+. c #AF8178",
"@. c #B38277",
"#. c #BB8379",
"$. c #BA8477",
"%. c #CA8978",
"&. c #C28778",
"*. c #968784",
"=. c #968983",
"-. c #9A8D8A",
";. c #988A85",
":. c #99918D",
">. c #9F9792",
",. c #9C9896",
"<. c #B78C8A",
"1. c #BE8D8B",
"2. c #A39694",
"3. c #A39D9B",
"4. c #A79B97",
"5. c #ACA19E",
"6. c #AEB09F",
"7. c #ADA5A4",
"8. c #AEA9A6",
"9. c #A4ABAB",
"0. c #AAACAC",
"q. c #A4A5A5",
"w. c #B2ADAD",
"e. c #B1A7A3",
"r. c #A6B1AD",
"t. c #ADB0A4",
"y. c #B6B1AF",
"u. c #B8B5AD",
"i. c #AAAFB1",
"p. c #A9B3B0",
"a. c #ACBAB3",
"s. c #B3B6B6",
"d. c #BDBCBC",
"f. c #B4BBB8",
"g. c #C58E8D",
"h. c #DF9192",
"j. c #E59493",
"k. c #C4ACAA",
"l. c #C4BAB7",
"z. c #C4BEBC",
"x. c #D7BEBB",
"c. c #B4C4BB",
"v. c #B9C3BD",
"b. c #C1C0BF",
"n. c #CCC0BC",
"m. c #BBB9C0",
"M. c #BEC4C3",
"N. c #BDCBC2",
"B. c #BFD1C6",
"V. c #B7D7EE",
"C. c #C5C4C3",
"Z. c #CAC5C4",
"A. c #C2CCC6",
"S. c #C6CBCC",
"D. c #CBCCCC",
"F. c #C5C7C8",
"G. c #D4CECB",
"H. c #DFC6C5",
"J. c #C5D7CC",
"K. c #CDCFD0",
"L. c #CED1D2",
"P. c #CADED2",
"I. c #D4D4D4",
"U. c #D4D7D8",
"Y. c #D6D9DA",
"T. c #DCDCDC",
"R. c #DCD6D4",
"E. c #D7D1CE",
"W. c #E6C7C7",
"Q. c #EDC8C8",
"!. c #E2DEDC",
"~. c #F3C9C9",
"^. c #CDE2D5",
"/. c #D0E4D7",
"(. c #DCE2DE",
"). c #D3E9DB",
"_. c #DCEBF7",
"`. c #E4E4E4",
"'. c #E9E6E4",
"]. c #E7E8E8",
"[. c #EDECEC",
"{. c #F1EFEF",
"}. c #FFFFFF",
"|. c #F3F2F2",
" X c #ECF5FD",
/* pixels */
").).).).).).).).).).).).).).).).).).).).).).).).).).).).).).).).).).).).).).).).).).).).).).).).).).",
").).).).).).).).).).).).).).).).).).).).).).).).).).).).).).).).).).).).).).).).).).).).).).).).).).",
").).).).).).).).).).).).).).).).).).).).).).).B.r.9.B./.).).).).).).).).).).).).).).).).).).).).).).",
").).).).).).).).).).).).).).).).).).).).^.c.p.M.F.d.M.9.a./.).).).).).).).).).).).).).).).).).).).).",
").).).).).).).).).).).).).).).).).).P.r.i.L.z.*.R R =.b.L.9.r.J.).).).).).).).).).).).).).).).).).).",
").).).).).).).).).).).).).).).).c.p.f.U.u.W =.5.t t 4.;.=.s.U.f.p.c.).).).).).).).).).).).).).).).).",
").).).).).).).).).).).).).P.a.p.S.K.5.W 5.-.K = l k = 5 Q 7.=.7.I.S.9.a.P.).).).).).).).).).).).).).",
").).).).).).).).).).).A.p.p.Y.Z.;.:.5.T - K P P P P P P n   u 3.>.,.I.Y.p.9.N.).).).).).).).).).).).",
").).).).).).).).^.c.q.S.T.s.=.e.=.7 a x x _ @.) &.$.@.$._ x x f K *.8.,.d.T.C.9.c.^.).).).).).).).).",
").).).).).).).).r.s.U.5.2.-.U ; o & & & & Y ( ( @.$.( ( Y & & & & $ ; w X.3.z.Y.9.9.).).).).).).).).",
").).).).).).).^.i.d.w.*.5 d c c c c c c c ` %.%.%.%.%.%._ c c c c c c M = 4 o.d.D.9.P.).).).).).).).",
").).).).).).).a.U.,.w % % % % % % % % % % Y ( ~ k.k.@.$.Y % % & % % % % % % % < i.T.a.).).).).).).).",
").).).).).).).9.I.0.. s s s s s s f s s s ' d.V._. X`.x.' f f s s s s a s s s X 7.T.i.).).).).).).).",
").).).).).).N.L.3.Q d k k d l d k k d z c Q.}.}.}.}.}.}.Q.c h d k g d v d l d d E s.L.M.).).).).).).",
").).).).).).r.Y.3., + + + + + + + % a s f % % % % % % % & f s a # + + + + + @ + , 0.].9.).).).).).).",
").).).).).P.M.d.-.= l k l d b M C C C C Z C C C C C A C C C C C c V m k k d j s * ;.F.M.P.).).).).).",
").).).).).i.].,.q O O O + # & & & & & & % % = % % = % = = % = = * = = * % $ O O O 9 0.{.p.).).).).).",
").).).).).s.C.5.$ j v C C C V V V V V C C C C C C C C C C C C C C C C C C C M v d @ 7.Y.s.).).).).).",
").).).).c.].3.u     @ # # % % % % % # # s d d d s s d s s s a d d d d d s s d = $ @ T 0.].c.).).).).",
").).).).f.T.8.2 d v C C C C C C C C C C C C C C C C C C C C C C C C C C C C C C d d 2 q.].s.).).).).",
").).).J.I.7.X.+ 4 / <.<.<.<.<.<.d d d d d / 1.<.<.1.<.1./ d d d d d <.<.<.<.<.<.^ 4 o X.m.I.J.).).).",
").).).d.[.3.6 % I z.! C.!.;.z.}.v v v v v W.4.o.R.l.2.T.W.v v v v v }.W *.{.n.e.x.I = 6 7. Xs.).).).",
").)./.L.m.3.$ s #.5.e ! `.o.0 }.M M M c C W.E e 5.m.X.! W.C C v M V }.9 e E.Z.E ! ) s o 3.F.D./.).).",
").).B.[.:.t * % g.'.G.!.|.G.E.}.v v v v v H.T.G.'.{.K.T.W.v v v h h }.G.G.{.'.G.].g.* % w q.[.F.).).",
").).C.I.8.@ g b j.y.p ;.!.3.;.}.D C D C C Q.;.i k.m.7.4.~.C C C C D }.u i I.Z.5.5.h.h l $ y.T.F.).).",
").J.`.3.W @ # d g.3.> e R.< q }.g g g l g W.u > 2.w.< Q H.= a s = & }.1 > Z.7.< -.1.$ o X ! 0.!.J.).",
").C.(.3.n x m G j.}.}.}.}.}.}.}.G G D G G ~.}.}.}.}.}.}.~.D G G S G }.}.}.}.}.}.}.j.D g z 4 w.'.N.).",
"/.U.8.7.. # * v k k k b l d k l k b k b l k d d d d d d d v k v l l d d d d d f d k l & $ . e.e.K./.",
"v.[.y 2.% f V C V V V V Z V V Z V V V V V V C A A A V A V V V C V V A A A V C V V A A M g & >.y [.v.",
"D.b.3 2.% g V c V V B V B B V B B B B V B V B V B V V V V B B B V B V V V V B B V V V B f % >.3 b.D.",
"v.6.u.2.& c Z Z Z Z L  . . . . . . . . . . . . . . . . . . . . . . . . . . . .L Z Z Z Z c & >.6.v.b.",
").).).2.h J J J J J | ........................................................| F F F F F l 4.).).).",
").).).4.j A A A c B { ........................................................{ B A c B B j >.).).).",
").).).>.A H H H H H | ........................................................| H H H H H A 2.).).).",
").).).2.l N N x c x { ........................................................{ c x c c c j 2.).).).",
").).).2.B S S S S S | ........................................................| S S S S S c 2.).).).",
").).).2.k x x N z x [ ........................................................] k k k k k : >.).).).",
").).).2.l x x x x x { ........................................................{ N x x x x j 2.).).).",
").).).2.j l l z z l [ ........................................................[ l l z l l : 2.).).).",
").).).2.: : j j j j ] ........................................................] j j j j j # 2.).).).",
").).).5.l N N N N c { ........................................................{ N N N N N j >.).).).",
").).).>.j l z l z l [ ........................................................] k l k l k : >.).).).",
").).).>.l N N N N N { ........................................................{ N N N N N k 4.).).).",
").).).3.: j : : j j ] ........................................................] j j j j j % >.).).).",
").).).>.j b b b z z { ........................................................[ z z z z z : >.).).).",
").).).>.: : : : : : ] ........................................................] j : : : j # >.).).).",
").).).>.: : j j j j ] ........................................................] j j j j j : >.).).).",
").).).A.(.(.(.(.(.).(.(.(.(.(.).(.(.(.(.(.(.(.(.(.(.(.(.(.(.(.(.(.(.(.(.(.(.(.(.(.(.(.(.).).n.).).).",
").).).).).).).).).).).).).).).).).).).).).).).).).).).).).).).).).).).).).).).).).).).).).).).).).).",
").).).).).).).).).).).).).).).).).).).).).).).).).).).).).).).).).).).).).).).).).).).).).).).).).)."
};
