/* XPM */
static char *result[] = {
/* columns rows colors chars-per-pixel */
"50 50 217 2 ",
"   c #711E0F",
".  c #791E10",
"X  c #59290F",
"o  c #5B250F",
"O  c #5A3118",
"+  c #572A13",
"@  c #642C0F",
"#  c #61300E",
"$  c #6A370E",
"%  c #723E0D",
"&  c #78370E",
"*  c #662710",
"=  c #722713",
"-  c #61351C",
";  c #673814",
":  c #7C3C10",
">  c #51352E",
",  c #613921",
"<  c #6C372D",
"1  c #723C38",
"2  c #7A450D",
"3  c #73420E",
"4  c #6D4117",
"5  c #774A1A",
"6  c #68422A",
"7  c #704D35",
"8  c #705033",
"9  c #7C643B",
"0  c #3A3751",
"q  c #3D3A55",
"w  c #453F4D",
"e  c #423F5B",
"r  c #44425A",
"t  c #55484C",
"y  c #785942",
"u  c #725A47",
"i  c #6C4D42",
"p  c #7F654F",
"a  c #75614F",
"s  c #726653",
"d  c #4C4865",
"f  c #514C6D",
"g  c #5B567A",
"h  c #5A5577",
"j  c #56566C",
"k  c #715967",
"l  c #7E7161",
"z  c #606474",
"x  c #79687A",
"c  c #811B11",
"v  c #941E13",
"b  c #A11E13",
"n  c #842711",
"m  c #952913",
"M  c #9B2312",
"N  c #8F3811",
"B  c #A52615",
"V  c #B82915",
"C  c #CE2B15",
"Z  c #834B0C",
"A  c #904C0D",
"S  c #8B550C",
"D  c #935B0B",
"F  c #814D11",
"G  c #845818",
"H  c #955F12",
"J  c #A64310",
"K  c #B6580D",
"L  c #9A620C",
"P  c #996917",
"I  c #AC7009",
"U  c #B37609",
"Y  c #BC7F08",
"T  c #B27C0D",
"R  c #A77714",
"E  c #A86E0D",
"W  c #885A27",
"Q  c #9E7924",
"!  c #8F6E2F",
"~  c #A47F32",
"^  c #C3530E",
"/  c #D95D0E",
"(  c #D14F11",
")  c #D9660D",
"_  c #CC6A0C",
"`  c #E56B0D",
"'  c #E3620E",
"]  c #E6760B",
"[  c #E15B0F",
"{  c #87715C",
"}  c #8F7348",
"|  c #8E7D68",
" . c #82796A",
".. c #897F7C",
"X. c #BA8611",
"o. c #BA9528",
"O. c #AE8D33",
"+. c #C78907",
"@. c #CD920D",
"#. c #DD9B05",
"$. c #D69808",
"%. c #CA9814",
"&. c #CD9314",
"*. c #D9A510",
"=. c #E5AB0C",
"-. c #E3A40A",
";. c #E8B70D",
":. c #EBAB13",
">. c #E7A813",
",. c #ECB513",
"<. c #EBB813",
"1. c #F4BC16",
"2. c #F8BC16",
"3. c #F2B716",
"4. c #F1AE1B",
"5. c #C89C29",
"6. c #D1AB2E",
"7. c #E5BC2B",
"8. c #F6B420",
"9. c #F6BB22",
"0. c #E09E08",
"q. c #EBC715",
"w. c #F5C416",
"e. c #F5CB15",
"r. c #F7C219",
"t. c #F5CA1C",
"y. c #F4D315",
"u. c #F2DD16",
"i. c #EBC910",
"p. c #F3E01C",
"a. c #F6C323",
"s. c #F6CC24",
"d. c #F6CD2D",
"f. c #F7C42A",
"g. c #F6D224",
"h. c #F6D729",
"j. c #F6D434",
"k. c #F6DC3B",
"l. c #F7D937",
"z. c #EECA38",
"x. c #F5E32F",
"c. c #B2974F",
"v. c #BCA252",
"b. c #898679",
"n. c #968975",
"m. c #90837F",
"M. c #BFAA7B",
"N. c #968442",
"B. c #D0BC4A",
"V. c #D2BE59",
"C. c #CDB965",
"Z. c #ECD644",
"A. c #F9DD4C",
"S. c #F6DB45",
"D. c #E9D657",
"F. c #FBD95A",
"G. c #FAD954",
"H. c #EFCE4C",
"J. c #F7E448",
"K. c #F7E858",
"L. c #EED86B",
"P. c #FAEE6C",
"I. c #FAEF71",
"U. c #FAF178",
"Y. c #D9C448",
"T. c #5E5A80",
"R. c #635D84",
"E. c #6A648D",
"W. c #686389",
"Q. c #6B6790",
"!. c #736C97",
"~. c #7C759B",
"^. c #757688",
"/. c #7B75A1",
"(. c #867EA5",
"). c #867C9F",
"_. c #7D858D",
"`. c #9E9785",
"'. c #95909B",
"]. c #B39F84",
"[. c #96A198",
"{. c #A5A18F",
"}. c #ADAD9B",
"|. c #B5A397",
" X c #8E86AE",
".X c #8780A6",
"XX c #A08EA3",
"oX c #9AA6A7",
"OX c #9AA9A1",
"+X c #A5B5AC",
"@X c #B5B9A8",
"#X c #BCB0AB",
"$X c #A9BAB1",
"%X c #ABBAB7",
"&X c #BAABA1",
"*X c #C0AD90",
"=X c #C9BAB2",
"-X c #C3B6AE",
";X c #B9C5B7",
":X c #AFC1B7",
">X c #FBF285",
",X c #D0C4BC",
"<X c #A69CC2",
"1X c #B8AFD4",
"2X c #AFA5C7",
"3X c #B9CBC2",
"4X c #C5D9CD",
"5X c #CBDDCE",
"6X c #C2D2C7",
"7X c #C9DED1",
"8X c #D6CECA",
"9X c #CEE3D6",
"0X c #D3E9DB",
"qX c #ECEBE9",
"wX c #FEFEFE",
"eX c #F5F3F2",
"rX c #F2E9E2",
/* pixels */
"0X0X0X0X0X0X0X0X0X0X0X0X0X0X0X0X0X0X0X0X0X0X0X0X0X0X0X0X0X0X0X0X0X0X0X0X0X0X0X0X0X0X0X0X0X0X0X0X0X0X",
"0X0X0X0X0X0X0X0X0X0X0X0X0X0X0X0X0X0X0X0X0X0X0X6X:X%X5X0X0X0X0X0X0X0X0X0X0X0X0X0X0X0X0X0X0X0X0X0X0X0X",
"0X0X0X0X0X0X0X0X0X0X0X0X0X0X0X0X0X0X0X4X^.j 0 0 d e 0 0 z [.7X0X0X0X0X0X0X0X0X0X0X0X0X0X0X0X0X0X0X0X",
"0X0X0X0X0X0X0X0X0X0X0X0X0X0X0X0X0X6Xz 0 j ).XX1X1X1X1X2X~.d 0 _.7X0X0X0X0X0X0X0X0X0X0X0X0X0X0X0X0X0X",
"0X0X0X0X0X0X0X0X0X0X0X0X0X0X0X0XoXr h ).< m - '.XX1X1X1X<X X~.f d 3X0X0X0X0X0X0X0X0X0X0X0X0X0X0X0X0X",
"0X0X0X0X0X0X0X0X0X0X0X0X0X0X0XoXq Q. Xk B C m @ m = 2X1X<X X X Xg r 3X0X0X0X0X0X0X0X0X0X0X0X0X0X0X0X",
"0X0X0X0X0X0X0X0X0X0X0X0X0X0X3Xr W. X X1 V C M M C n XX1X<X X X X.Xf h 0X0X0X0X0X0X0X0X0X0X0X0X0X0X0X",
"0X0X0X0X0X0X0X0X0X0X0X0X0X0X^.f ~. X Xi b V B m V . !..X(.(. X X X!.r oX0X0X0X0X0X0X0X0X0X0X0X0X0X0X",
"0X0X0X0X0X0X0X0X0X0X0X0X0X0Xr W.(. X!.k . B B m B = d f R.E.!.)..X/.g z 0X0X0X0X0X0X0X0X0X0X0X0X0X0X",
"0X0X0X0X0X0X0X0X0X0X0X0X0X9X0 !./.!.R.e > . v b M c W 9 t 0 f W.!.!.R.0 0X0X0X0X0X0X0X0X0X0X0X0X0X0X",
"0X0X0X0X0X0X0X0X0X0X0X0X0X%Xq Q.E.f 0 9 5.6.~ W W c.H.K.H.o.i 0 g R.Q.0 3X0X0X0X0X0X0X0X0X0X0X0X0X0X",
"0X0X0X0X0X0X0X0X0X0X0X0XoXr 0 Q.d e 5.z.P.P.I.I.I.I.I.I.U.U.K.O.w h R.f q _.0X0X0X0X0X0X0X0X0X0X0X0X",
"0X0X0X0X0X0X0X0X0X0X0X+Xq E.!.T.w 5.A.B.B.L.U.U.U.>XU.>XL.V.B.K.5.q g R./.q OX0X0X0X0X0X0X0X0X0X0X0X",
"0X0X0X0X0X0X0X0X0X0X0Xj E.T.g q ~ 6.*XeXwX=XC.>X>X>X>XC.,XwXeX|.Y.N.r h g W.z 0X0X0X0X0X0X0X0X0X0X0X",
"0X0X0X0X0X0X0X0X0X0X0X0 !.0 T.0 7.M.wXrX8XwX8XL.>X>XL.8XwX8XeXwXM.Z.0 g d !.z 0X0X0X0X0X0X0X0X0X0X0X",
"0X0X0X0X0X0X5Xp y p @Xj Q.r g u S.-XwX> 6X#XeXc.>X>Xc.wX#Xb.m.wX@XK.s f g h ^.{.7 X 8 ;X0X0X0X0X0X0X",
"0X0X0X0X0X0Xp S Y O.$ t q Q.f ~ J.|.wX7 6 ,XeXv.C.V.c.eX,XO } wX}.J.s d T.q u ; o.@.S p 0X0X0X0X0X0X",
"0X0X0X0X0X0X8 X.q.K.D.4 > 0 q N.J.v.qXwXrXwX].4 Z 4 6 ].eXrXwXqXv.J.s 0 j i 9 K.K.q.X.y 0X0X0X0X0X0X",
"0X0X0X0X0X0Xy E i.p.K.D.4 > d ! J.Z.c.&X#X].5 o o o o 5 ].#X&Xc.Z.J.u 0 > W K.K.p.i.I 9 0X0X0X0X0X0X",
"0X0X0X0X0X0X{ % i.u.u.K.D.9 O 4 k.k.S.S.z.x.5 = c c   ; k.z.S.Z.k.k.+ > ! D.K.p.u.;.# | 7X0X0X0X0X0X",
"0X0X0X0X0X{ $ + 2 u.u.u.K.K.O.X o.k.k.k.l.k.Q c b B . P k.k.l.k.k.o.O O.K.J.i.y.y.3 # $ { 9X0X0X0X0X",
"0X0X0X0X0Xy Y $.X.*.#.;.;.A.K.c.5 j.j.j.j.j.z.; n n ; z.j.j.j.j.h.%.; H.S.<.;.-.*.X.-.U y 0X0X0X0X0X",
"0X0X0X0X0Xn.2 =.y.;.i.y.y.y.l.5 D y.j.d.d.d.z.2 = = * d.d.d.d.d.e.1.S H y.y.y.;.;.y.*.% n.0X0X0X0X0X",
"0X0X0X0X0X5X7 S ;.i.-.i.y.y.*.# $.=.1.d.d.f.P m V V * 5.d.f.d.w.;.=.X.* e.e.i.-.w.=.% 8 7X0X0X0X0X0X",
"0X0X0X0X0X0X5X7 $ X.;.=.e.e.q.# @ @.1.<.4.a.R * C b * 8.a.3.1.1.,.I $ 2 y.e.=.1.T # 8 5X0X0X0X0X0X0X",
"0X0X0X0X0X0X0X6 % 2 #.w.e.e.w.R 2 -.@.3 :.,.>.R = * H 3.,.-.E >.-.U + 1.w.t.2.@.2 3 - 0X0X0X0X0X0X0X",
"0X0X0X0X0X0X0XX +.3.<.r.w.w.r.*.X 2 X D :.U E I Y $.F >.-.S % # H $ P r.r.r.w.3.3.+.X 9X0X0X0X0X0X0X",
"0X0X0X0X0X0X0X| # %.1.1.2.w.2.r.,.%.F Z U $ 3 $ I :.% % Z ; G X.R X.2.2.2.2.2.2.+.@ b.0X0X0X0X0X0X0X",
"0X0X0X0X0X0X0X0Xn.O H +.2.2.2.3.1.2.*.G 5 Q o.5 % L X Q O.7.q.r.2.2.2.2.2.3.X.2 O {.0X0X0X0X0X0X0X0X",
"0X0X0X0X0X0X0X0X0X,Xn.6 o F F *.2.r.g.k.J.J.J.Z.Q 5 6.S.k.S.h.g.t.3.+.F $ X 7 `.9X0X0X0X0X0X0X0X0X0X",
"0X0X0X0X0X0X0X0X0X0X0X0X6X@X{ Y <.h.h.k.J.A.J.A.A.A.S.A.A.A.h.g.g.<.Y { @X0X0X0X0X0X0X0X0X0X0X0X0X0X",
"0X0X0X0X0X0X0X0X0X0X0X0X0X0X@XE =.g.g.J.A.A.G.A.A.A.G.G.A.A.j.g.s.:.Y `.0X0X0X0X0X0X0X0X0X0X0X0X0X0X",
"0X0X0X0X0X0X0X0X0X0X0X0X0X0X0XZ #.s.g.k.G.G.G.G.G.G.A.G.G.G.a.s.s.-.L @X0X0X0X0X0X0X0X0X0X0X0X0X0X0X",
"0X0X0X0X0X0X0X0X0X0X0X0X0X0X0X5 #.s.s.d.G.G.F.F.F.F.F.F.F.G.a.a.a.:.S ;X0X0X0X0X0X0X0X0X0X0X0X0X0X0X",
"0X0X0X0X0X0X0X0X0X{.n.@X0X0X;XD -.s.a.s.j.F.F.F.F.F.F.F.F.f.f.9.a.4.+.| 0X0X0X0X0X0X0X0X0X0X0X0X0X0X",
"0X0X0X0X0X0X0X0X- @ A # {.0X{.U :.a.a.a.9.f.H.G.F.F.G.z.9.9.9.9.9.9.#.5 0X9X;X6 X 7 }.0X0X0X0X0X0X0X",
"0X0X0X0X0X0X0X0X- N ] _ X `.n.Y :.9.9.9.9.9.9.9.8.8.8.8.8.8.8.8.8.8.#.Z 0X6X4 A ] n X 0X0X0X0X0X0X0X",
"0X0X0X0X0X0X0X0X}.@ [ ` _ # o Y #.:.4.>.-.=.4.9.8.8.8.4.:.0.:.8.8.:.#.D { - A ` / $ n.0X0X0X0X0X0X0X",
"0X0X0X0X0X0X0X0X{ & ' ] ` ` K 2 @.#.X.L E @.-.0.0.#.#.#.$.I U #.#.#.$.2 N K ` ` ) X }.0X0X0X0X0X0X0X",
"0X0X0X0X0X0X0X0X}.o N K / ' ^ X u 7 p b.b.u 5 2 A H 2 5 7  .l 4 D D $ = ) ] ] ` ( # n.0X0X0X0X0X0X0X",
"0X0X0X0X0X0X0X0X9X`., # + @ ) $ l [.OXOXOXOXOXOXOXOXOXOXOXOXOXOX[.[. .+ ^ J & : $ { 0X0X0X0X0X0X0X0X",
"0X0X0X0X0X0X0X0X:XOXOXOXOX+ / _ O OXOXOXOXOXOXOXOXOXOXOXOXOXOXOXOXOX, K ^ o  . ...%X9X0X0X0X0X0X0X0X",
"0X0X0X0X0X0X0X:X[.OXOXOXOX6 N V O OXOXOXOXOXOXOXOXOXOXOXOXOXOXOXOXOX+ ) K - OXOX[.OX:X0X0X0X0X0X0X0X",
"0X0X0X0X0X0X0X:XOXOXOXOXOXb.O # s OXOXOXOXOXOXOXOXOXOXOXOXOXOXOXOXOX, N @ u OXOXOXOX$X0X0X0X0X0X0X0X",
"0X0X0X0X0X0X0X3XOXOXOXOXOXOX[.b.[.OXOXOXOXOXOXOXOXOXOXOXOXOXOXOXOXOXb.6 b.OXOXOXOXOX4X0X0X0X0X0X0X0X",
"0X0X0X0X0X0X0X0X9X:XOX[.OXOXOXOXOXOXOXOXOXOXOXOXOXOXOXOXOXOXOXOXOXOXOXOXOX[.OXOX$X7X0X0X0X0X0X0X0X0X",
"0X0X0X0X0X0X0X0X0X0X9X3X+XOXOXOXOXOXOXOXOXOXOXOXOXOXOXOXOXOXOX[.OXOXOXOXOX$X3X9X0X0X0X0X0X0X0X0X0X0X",
"0X0X0X0X0X0X0X0X0X0X0X0X0X0X7X3X:X$X$XOXOXOXOXOXOXOXOXOXOXOXOX$X%X:X3X4X0X0X0X0X0X0X0X0X0X0X0X0X0X0X",
"0X0X0X0X0X0X0X0X0X0X0X0X0X0X0X0X0X0X0X0X0X0X7X3X9X7X3X9X0X0X0X0X0X0X0X0X0X0X0X0X0X0X0X0X0X0X0X0X0X0X",
"0X0X0X0X0X0X0X0X0X0X0X0X0X0X0X0X0X0X0X0X0X0X0X0X0X0X0X0X0X0X0X0X0X0X0X0X0X0X0X0X0X0X0X0X0X0X0X0X0X0X"
};
