/* XPM */
static char *result[] = {
/* columns rows colors chars-per-pixel */
"50 50 203 2 ",
"   c #5B3F64",
".  c #5A426B",
"X  c #59416A",
"o  c #524374",
"O  c #5B4875",
"+  c #614C75",
"@  c #734E75",
"#  c #64557D",
"$  c #785077",
"%  c #79567B",
"&  c #854F7B",
"*  c #82517C",
"=  c #8A5676",
"-  c #95567D",
";  c #99557E",
":  c #9B5C7D",
">  c #A25E7F",
",  c #665782",
"<  c #715D82",
"1  c #76668C",
"2  c #766B8C",
"3  c #7B6586",
"4  c #7E749A",
"5  c #7C7296",
"6  c #766892",
"7  c #8A5283",
"8  c #8E5488",
"9  c #835180",
"0  c #9C5B82",
"q  c #94578D",
"w  c #915A8C",
"e  c #9C5E8E",
"r  c #955581",
"t  c #8E5892",
"y  c #945B94",
"u  c #995C96",
"i  c #955B99",
"p  c #9B5D99",
"a  c #A35B86",
"s  c #AB5D85",
"d  c #A15C8B",
"f  c #A95E89",
"g  c #B25F85",
"h  c #A05F9D",
"j  c #836F8C",
"k  c #886186",
"l  c #95658D",
"z  c #996889",
"x  c #8F7187",
"c  c #8C6E90",
"v  c #9A6196",
"b  c #966896",
"n  c #847497",
"m  c #80779A",
"M  c #857B9C",
"N  c #8A7E9D",
"B  c #9C7D92",
"V  c #927992",
"C  c #A56081",
"Z  c #A5628D",
"A  c #AD648E",
"S  c #A16E8B",
"D  c #A76B87",
"F  c #B46087",
"G  c #B6628B",
"H  c #B9648E",
"J  c #A27085",
"K  c #A36292",
"L  c #AC6592",
"P  c #AD6892",
"I  c #A06F9F",
"U  c #A26797",
"Y  c #B26292",
"T  c #BA6592",
"R  c #BD6A94",
"E  c #BD6C9B",
"W  c #B36A98",
"Q  c #A37B94",
"!  c #AA799B",
"~  c #BC729A",
"^  c #B7749E",
"/  c #857EA3",
"(  c #8A7FA2",
")  c #A067A0",
"_  c #A16EA1",
"`  c #A77DA4",
"'  c #BF75A4",
"]  c #C16D9B",
"[  c #C06D97",
"{  c #C3729B",
"}  c #C7789F",
"|  c #C26EA0",
" . c #C372A4",
".. c #C47BA1",
"X. c #C676AA",
"o. c #7E8697",
"O. c #878298",
"+. c #9A8D9C",
"@. c #9A8899",
"#. c #A2828F",
"$. c #A18391",
"%. c #A6859C",
"&. c #B68690",
"*. c #A19996",
"=. c #A29E9D",
"-. c #A0AF88",
";. c #A3B085",
":. c #A1A39B",
">. c #A4B09D",
",. c #B0BF9F",
"<. c #8680A5",
"1. c #8A82A5",
"2. c #8C85AA",
"3. c #8D8DA7",
"4. c #908DA4",
"5. c #9694A1",
"6. c #9394B1",
"7. c #9D9BB2",
"8. c #8B97A7",
"9. c #AA8DA3",
"0. c #A786AB",
"q. c #B284A4",
"w. c #A59FA1",
"e. c #A89CAA",
"r. c #A897A6",
"t. c #B79EA9",
"y. c #AD8AB0",
"u. c #95A2A1",
"i. c #9CA1AC",
"p. c #97A6B4",
"a. c #A4A3A5",
"s. c #A3ACA4",
"d. c #ACACA4",
"f. c #A4A3AA",
"g. c #A4AAAD",
"h. c #ABABAB",
"j. c #A8A2A9",
"k. c #A3B5A5",
"l. c #A3B2A9",
"z. c #A3BAAE",
"x. c #ADB3AB",
"c. c #B1B3AE",
"v. c #A5ADB2",
"b. c #A5ABBC",
"n. c #B4A4BB",
"m. c #A3B3B4",
"M. c #A3BCB3",
"N. c #A3BDBA",
"B. c #ADB9B9",
"V. c #B4B4B1",
"C. c #B4BBB3",
"Z. c #BBB2BB",
"A. c #B5BEBC",
"S. c #C3969D",
"D. c #C58DAA",
"F. c #C78FB3",
"G. c #C69CB8",
"H. c #C8B7BE",
"J. c #CBA7B8",
"K. c #A3C1B6",
"L. c #AEC1B4",
"P. c #A2C3BB",
"I. c #A2C8BD",
"U. c #BDC7BC",
"Y. c #BACABA",
"T. c #B4C4B9",
"R. c #C0CBBF",
"E. c #C5D7BF",
"W. c #A3BEC1",
"Q. c #AEB6C0",
"!. c #BCB9C3",
"~. c #CCBAC2",
"^. c #A2C4C4",
"/. c #AAC3C6",
"(. c #A1C4CA",
"). c #A0CACC",
"_. c #BCCDC3",
"`. c #BDCCCA",
"'. c #B8C1C3",
"]. c #AED2CE",
"[. c #B2CDD7",
"{. c #ADD2D2",
"}. c #B2D5D0",
"|. c #BCDBD5",
" X c #C1C4C7",
".X c #C5C5CA",
"XX c #C3CECD",
"oX c #C8CFCD",
"OX c #C1CBC3",
"+X c #C1D1C4",
"@X c #C4D3CB",
"#X c #CED1CD",
"$X c #C7DACD",
"%X c #C9D5D0",
"&X c #C3DDD4",
"*X c #CCDFD3",
"=X c #C3DAD5",
"-X c #D1DAD4",
";X c #CEE0D5",
":X c #CDE3D8",
">X c #D0E3D7",
",X c #D1E6DA",
"<X c #D3E9DB",
/* pixels */
"<X<X<X<X<X<X<X<X<X<X<X<X<X<X<X<X<X<X<X<X<X<X<X<X<X<X<X<X<X<X<X<X<X<X<X<X<X<X<X<X<X<X<X<X<X<X<X<X<X<X",
"<X<X<X<X<X<X<X<X<X<X<X<X<X<X<X<X<X<X<X<X<X<X<X<X<X<X<X<X<X<X<X<X<X<X<X<X<X<X<X<X<X<X<X<X<X<X<X<X<X<X",
"<X<X<X<X<X<X<X<X<X<X<X<X<X<X<X<X<X<X<X<X<X<X<X<X<X<X<X<X<X<X<X<X<X<X<X<X<X<X<X<X<X<X<X<X<X<X<X<X<X<X",
"<X<X<X<X<X<X<X<X<X<X<X<X<X<X<X<X<X<X<X<X<X<X<X<X<X<X<X<X<X<X<X<X<X<X<X<X<X<X<X<X<X<X<X<X<X<X<X<X<X<X",
"<X<X<X<X<X<X<X<X<X<X<X<X<X<X<X<X<X<X<X<X<X<X<X<X<X<X<X<X<X<X<X<X<X<X<X<X<X<X<X<X<X<X<X<X<X<X<X<X<X<X",
"<X<X<X<X<X<X<X<X<X<X<X<X<X<X<X<X<X<X<X<X<X<X<X<X<X<X<X<X<X<X<X<X<X<X<X<X<X<X<X<X<X<X<X<X<X<X<X<X<X<X",
"<X<X<X<X<X<X<X<X<X<X<X<X<X<X<X<X<X<X<X<X<X<X<X<X<X<X<X<X<X<X<X<X<X<X<X<X<X<X<X<X<X<X<X<X<X<X<X<X<X<X",
"<X<X<X<X<X<X<X<X<X<X<X<X<X<X<X<X<X<X<X<X<X<X<X<X<X<X<X<X<X<X<X<X<X<X<X<X<X<X<X<X<X<X<X<X<X<X<X<X<X<X",
"<X<X<X<X<X<X<X<X<X<X<X<X<X<X<X<X<X<X<X<X<X<X<X<X<X<X<X<X<X<X<X<X<X<X<X<X<X<X<X<X<X<X<X<X<X<X<X<X<X<X",
"<X<X<X<X<X<X<X<X<X<X<X<X<X<X<X<X<X<X<X<X<X<X<X<X<X<X<X<X<X<X<X<X<X<X<X<X<X<X<X<X<X<X<X<X<X<X<X<X<X<X",
"<X<X<X<X<X<X<X<X<X<X<X<X<X<X<X<X<X<X<X<X<X<X<X<X<X<X<X<X<X<X<X<X<X<X<X<X<X<X<X<X<X<X<X<X<X<X<X<X<X<X",
"<X<X<X<X<X<X<X<X<X<X<X<X<X<X<X<X<X<X<X<X<X<X<X<X<X<X<X<X<X<X<X<X<XXXB.5.@X<X<X<X<X<X<X<X<X<X<X<X<X<X",
"<X<X<X<X<X<X<X<XU.<X<X<X<X<X<X<X<X<X<X:X<X<X<X<X<X<X<X<X>X`.Q.7.( M 4 + T.<X<X<X<X<X<X<X<X<X<X<X<X<X",
"<X<X<X<X<X<X<X<X>.>X<X<X<X<X<X<X<X<X+XY.<X<X<X<X<X:Xb.6.1.1./ M n 5 , X g.<X<X<X<X<X<X<X<X<X<X<X<X<X",
"<X<X<X<X<X<X<X<Xd.R.<X<X<X<X<X<X<X<X>.Y.<X<X<X<X:X6.2.1./ m 4 4 n 1 .   5.<X<X<X<X<X<X<X<X<X<X<X<X<X",
"<X<X<X<X<X<X<X<Xd.c.$X<X<X<X<X<X<XY.:._.<X<X<X`.6./ / / / 1.O.N M # . X O.<X<X<X<X<X<X<X<X<X<X<X<X<X",
"<X<X<X<X<X<X<X<XC.*.C.*X<X<X<X$X,X>.:.$X<X<X<X'./ 2.1.1.1.( N N 1 . . X 2 <X<X<X<X<X<X<X<X<X<X<X<X<X",
"<X<X<X<X<X<X<X<XoX*.C.U.<X<X$XT._.:.:.;X<X<XXXb./ 2.1.n 3 $ @ % 3 < O o # <X<X<X<X<X<X<X<X<X<X<X<X<X",
"<X<X<X<X<X<X<X<X<X:.h.c.<X<X_.s.x.*.C.<X<X7.4 2.2.2.( 6 # + $ = c 1 O o o O.:X,X<X<X<X<X<X<X<X<X<X<X",
"<X<X<X<X<X<X<X<X<XOXw.w.<X<X_.a.w.:.*X<X<X+.j j 4.p.8.O.o.o.j x % , o o o o i.,X<X<X<X<X<X<X<X<X<X<X",
"<X<X<X<X<X<X<X<X<X<XV.h.XX*XB.h.w.h.B.z.M.P.P.P.I.P.P.K.M.K.K.M.M.z.z.z.z.u.u.L.L._.[./.k.;.;.,.+X<X",
"<X<X<X|.{.{.{.|.}.}.^.v.m.m.m.N.P.^.^.P.P.P.P.P.P.M.M.M.M.m.m.z.M.z.M.l.l.l.l.s.k.u.k.z.k.s.:.:.>X<X",
"<X:X{.).).).(.W.W.^.).W.P.N.N.m.m.g.m.v.v.v.g.g.f.a.a.a.a.+.@.#.a.P.M.f.$.#.#.$.$.#.J $.l.s.s.c.>X<X",
"<X:X|.:X/.=X~.f.e.(./.r.W %.9.h.e.e.r.Q Q Q Q B S z z ; ; - - - z i.N.B ; > > > > > : J <X*X_.@X<X<X",
"<X<X<X<X!.<X<Xq.! ).b.9.G P P %.r.r.Z a a a f C f 0 H F F g > g s 0 +.i.& & & & %.!.U.<X<X<X<X<X<X<X",
"<X<X<X<X`.<X,X~.T q.! ! L P P P L L z a Z H H H Z H G G F F G g F r * k * & & e.<X<X<X<X<X<X<X<X<X<X",
"<X<X<X<X X,X<X<X{ R [ [ W P P P P P Z A H H T A w Z G G G G [ > G 7 9 9 7 7 l ,X<X<X<X<X<X<X<X<X<X<X",
"<X<X<X<XoXXX<X<X<X~.D.] { } { { E K H R R R T q e Z G G H G G H f 7 7 7 7 7 Z.,X<X<X<X<X<X<X<X<X<X<X",
"<X<X<X<X<X<X<X<X<X<X<X-XJ...^ ] ..~ R R [ T d q d f T T H H H H Z 7 8 7 8 l <X<X<X<X<X<X<X<X<X<X<X<X",
"<X<X<X<X<X<X<X<X<X<X<X<X<X<X.XE ..E ] ] ] L t y h T T T T T T T U w 8 8 8  X<X<X<X<X<X<X<X<X<X<X<X<X",
"<X<X<X<X<X<X<X<X<X<X<X<X<X<X<X]  .E ] ] R y y y Y T T ] T Y g  .#Xb 8 q Q <X<X<X<X<X<X<X<X<X<X<X<X<X",
"<X<X<X<X<X<X<X<X<X<X<X<X<X<X<XG.' | | | h y y p p t t y t u ` #X<Xv q y .X<X<X<X<X<X<X<X<X<X<X<X<X<X",
"<X<X<X<X<X<X<X<X<X<X<X<X<X<X<X-X . . .E i i p p i i y u I Z.<X<X<XoXv ` <X<X<X<X<X<X<X<X<X<X<X<X<X<X",
"<X<X<X<X<X<X<X<X<X<X<X<X<X<X<X<XF.X. .p ) y.n.0.i p _ !.>XS <X<X<X<X,XoX<X<X<X<X<X<X<X<X<X<X<X<X<X<X",
"<X<X<X<X<X<X<X<X<X<X<X<X<X<X<X<X .X.G..X<X<X<X:X.X.X-X<X:Xt.<X<X<X<X<X<X<X<X<X<X<X<X<X<X<X<X<X<X<X<X",
"<X<X<X<X<X<X<X<X<X<X<X<X<X<X<X<X<X<X<X<X<X<X<X<X<X<X<X<X<X<X<X<X<X<X<X<X<X<X<X<X<X<X<X<X<X<X<X<X<X<X",
"<X<X<X<X<X<X<X<X<X<X<X<X<X<X<X<X<X<X<X<X<X#Xr.V <X<X<X<X<X<X<X<X<X<X<X<X<X<X<X<X<X<X<X<X<X<X<X<X<X<X",
"<X<X<X<X<X<X<X<X<X<X<X<X<X<X<X<X<X<X<X<X#XA C k <X<X<X<X<X<X<X<X<X<X<X<X<X<X<X<X<X<X<X<X<X<X<X<X<X<X",
"<X<X<X<X<X<X<X<X<X<X<X<X<X<X<X<X<X<X<X<X<XS.&.%X<X<X<X<X<X<X<X<X<X<X<X<X<X<X<X<X<X<X<X<X<X<X<X<X<X<X",
"<X<X<X<X<X<X<X<X<X<X<X<X<X<X<X<X<X<X<X<X<X<X<X<X<X<X<X<X<X<X<X<X<X<X<X<X<X<X<X<X<X<X<X<X<X<X<X<X<X<X",
"<X<X<X<X<X<X<X<X<X<X<X<X<X<X<X<X<X<X<X<X<X<X<X<X<X<X<X<X<X<X<X<X<X<X<X<X<X<X<X<X<X<X<X<X<X<X<X<X<X<X",
"<X<X<X<X<X<X<X<X<X<X<X<X<X<X<X<X<X<X<X<X<X<X<X<X<X<X<X<X<X<X<X<X<X<X<X<X<X<X<X<X<X<X<X<X<X<X<X<X<X<X",
"<X<X<X<X<X<X<X<X<X<X<X<X<X<X<X<X<X<X<X<X<X<X<X<X<X<X<X<X<X<X<X<X<X<X<X<X<X<X<X<X<X<X<X<X<X<X<X<X<X<X",
"<X<X<X<X<X<X<X<X<X<X<X<X<X<X<X<X<X<X<X<X<X<X<X<X<X<X<X<X<X<X<X<X<X<X<X<X<X<X<X<X<X<X<X<X<X<X<X<X<X<X",
"<X<X<X<X<X<X<X<X<X<X<X<X<X<X<X<X<X<X<X<X<X<X<X<X<X<X<X<X<X<X<X<X<X<X<X<X<X<X<X<X<X<X<X<X<X<X<X<X<X<X",
"<X<X<X<X<X<X<X<X<X<X<X<X<X<X<X<X<X<X<X<X<X<X<X<X<X<X<X<X<X<X<X<X<X<X<X<X<X<X<X<X<X<X<X<X<X<X<X<X<X<X",
"<X<X<X<X<X<X<X<X<X<X<X<X<X<X<X<X<X<X<X<X<X<X<X<X<X<X<X<X<X<X<X<X<X<X<X<X<X<X<X<X<X<X<X<X<X<X<X<X<X<X",
"<X<X<X<X<X<X<X<X<X<X<X<X<X<X<X<X<X<X<X<X<X<X<X<X<X<X<X<X<X<X<X<X<X<X<X<X<X<X<X<X<X<X<X<X<X<X<X<X<X<X",
"<X<X<X<X<X<X<X<X<X<X<X<X<X<X<X<X<X<X<X<X<X<X<X<X<X<X<X<X<X<X<X<X<X<X<X<X<X<X<X<X<X<X<X<X<X<X<X<X<X<X",
"<X<X<X<X<X<X<X<X<X<X<X<X<X<X<X<X<X<X<X<X<X<X<X<X<X<X<X<X<X<X<X<X<X<X<X<X<X<X<X<X<X<X<X<X<X<X<X<X<X<X"
};
